<svg xmlns="http://www.w3.org/2000/svg" viewBox="0 0 510.43 377.67"><title>logoPrincipal</title><path d="M321.67,276H310c9.27,9.26,16.43,17.35,25.66,26.63,0.76-.68,3.28-3,4.41-3.84l0,0,0.16-.18,0.11-.07,0,0a24.4,24.4,0,0,0,1.89-2.15Q332,286.25,321.67,276Z" transform="translate(-2.74 -69.12)" style="fill:#2a6fb8"/><path d="M300.43,276H287.95q19.4,19.5,38.75,39.06a8.79,8.79,0,0,0,.73-1.31,0.2,0.2,0,0,0,.06.05,3.9,3.9,0,0,0,.39-0.85l0,0a0.68,0.68,0,0,1,0-.14c1.23-2.54,2.17-5.43,3-6.35Q315.68,291.25,300.43,276Z" transform="translate(-2.74 -69.12)" style="fill:#2a6fb8"/><path d="M328.51,335.78c0-.6,0-1.2,0-1.8l-0.25-.24h0l0.26,0.24c-0.11-.42-2.89-6.51-3.33-6.82A3.33,3.33,0,0,1,324,325a9.68,9.68,0,0,1-.3-3.52c0-.22,0-0.41.07-0.6L278.63,276H266.55q30.81,31,61.57,62.16A6.42,6.42,0,0,0,328.51,335.78Z" transform="translate(-2.74 -69.12)" style="fill:#2a6fb8"/><path d="M225.5,294.15a33.4,33.4,0,0,0,3.27,1.44c1.5,0.57,2.48-.4,4-0.13L213.39,276s-10.49-.23-10.26,0a2.58,2.58,0,0,0,1.4,2.14,10,10,0,0,1,2.71,2.6,6.47,6.47,0,0,0,1.86,1.69,3.43,3.43,0,0,1,1.77,2.35c0.23,0.82.61,1.59,0.91,2.39A2.67,2.67,0,0,0,213.5,289a16.25,16.25,0,0,1,4.24,2.79c0.74,0.55,1.51,1.12,2.26,1.65a7.88,7.88,0,0,0,1.17.7C220.65,293.59,224.35,294.22,225.5,294.15Z" transform="translate(-2.74 -69.12)" style="fill:#2a6fb8"/><path d="M348.21,291.44a16.16,16.16,0,0,1,1-2.08c0.5-1.26-.35-6.27-0.45-7.71-0.48-.46-1.48-1.38-1.52-1.37l-1.85-.78c-1.93,0-4.38,0-6,.13l-0.64-.63a2.82,2.82,0,0,1,1-2.05A10.73,10.73,0,0,1,342,276H331l4.14,4.2a1.61,1.61,0,0,1,1.13-1.22c0.15-.06.32-0.07,0.47-0.12a6.6,6.6,0,0,0,1-.35h0a6.25,6.25,0,0,1-1,.35c-0.16,0-.33.06-0.48,0.12a1.6,1.6,0,0,0-1.13,1.22l3,3,0.17,0-0.17,0,9.5,9.61C347.82,292.41,348,291.92,348.21,291.44Z" transform="translate(-2.74 -69.12)" style="fill:#2a6fb8"/><path d="M317.91,347.85c0.95-.65,1.05-1.42,1.9-2.18,0.4-.21.84-2.9,1.29-3a6.82,6.82,0,0,0,1.51-.83Q289.84,309,256.94,276H244.62c24.07,24.28,48.44,48.27,72.82,72.26A2.85,2.85,0,0,1,317.91,347.85Z" transform="translate(-2.74 -69.12)" style="fill:#2a6fb8"/><path d="M269.5,354.18a15.08,15.08,0,0,0,.32,3.15l3.42,3.43a29.78,29.78,0,0,0,1.26,4.6,18.31,18.31,0,0,1,3.45,7,9.7,9.7,0,0,0,.62,1.42,5,5,0,0,1,.3.92q3.19,3.18,6.33,6.37a11.47,11.47,0,0,0,1.5-.42,23.7,23.7,0,0,1,5.89-.54,17.93,17.93,0,0,0,2.91-1.11q-13.3-13.15-26.54-26.37c0.09,0.19.16,0.39,0.26,0.58A2.5,2.5,0,0,1,269.5,354.18Z" transform="translate(-2.74 -69.12)" style="fill:#2a6fb8"/><path d="M243.13,294.42c0.85-.46,3.5-1.87,4.37-2.16,1.47,0.06,2.22.84,3.21,2.75,0,0.08.08,0.15,0.12,0.23a2.62,2.62,0,0,0,2.62,1.66,12.59,12.59,0,0,0,2.45-.3Q245.56,286.3,235.25,276s-2.41-.07-2.43-0.11l-10.06.11,19.1,19A8.26,8.26,0,0,0,243.13,294.42Z" transform="translate(-2.74 -69.12)" style="fill:#2a6fb8"/><path d="M310,361.46a1.89,1.89,0,0,1,.83-1.7c0.1-.09,2.62-1.66,2.74-1.72l-0.47-.47a4.07,4.07,0,0,0,.32-1,13.63,13.63,0,0,0,.11-2.76q-26.69-26.41-53.29-52.87c-0.06.21-.14,0.43-0.22,0.64a10.65,10.65,0,0,0-.67,2.59c0.39,0.72,3.25,6.75,3.85,7.33,0.75,0.72,1.47,1.43,2.21,2.12a6.91,6.91,0,0,1,2,3.21,25.69,25.69,0,0,0,1.06,2.58,12.32,12.32,0,0,1,1,3.14L310,362.86A12.73,12.73,0,0,0,310,361.46Z" transform="translate(-2.74 -69.12)" style="fill:#2a6fb8"/><path d="M303.52,370a7.76,7.76,0,0,1,1.14-1.21,8.15,8.15,0,0,0,.92-0.95q-12.66-12.69-25.35-25.4L268,330.27a3.54,3.54,0,0,1-.84,1.69c-0.37.42-.73,0.85-1.05,1.28-0.26.75-.89,4.34-1.11,5.1-0.06.24-.09,0.5-0.14,0.73q17.65,17.77,35.2,35.59C300.75,374,302.61,371.28,303.52,370Z" transform="translate(-2.74 -69.12)" style="fill:#2a6fb8"/><path d="M410.23,277.66a0.32,0.32,0,0,0,0-.17c-0.52-.49-1-1-1.5-1.46h-6.17c2.35,2.35,4.69,4.7,7,7.07A14.38,14.38,0,0,1,410.23,277.66Z" transform="translate(-2.74 -69.12)" style="fill:#2a6fb8"/><path d="M397.33,276c0.16,0.42.32,0.84,0.46,1.28a7.09,7.09,0,0,0,1.15,2.54,13.3,13.3,0,0,1,2.75,5.69,4.08,4.08,0,0,0,.39,1.05c0.65,0.65,1.26,1.29,1.91,2a1.33,1.33,0,0,0,1.54-.42,7.74,7.74,0,0,1,2-1.92,0.73,0.73,0,0,0,.3-0.37q-5.06-4.87-10.12-9.8h-0.38Z" transform="translate(-2.74 -69.12)" style="fill:#2a6fb8"/><path d="M168.11,325.87a12.85,12.85,0,0,0,1.64-1.61c0.23-.26,1.05-3.27,1.23-3.55l-0.08-.08c0.22-.71.39-1.27,0.39-1.28,0.05-1.72-.76-3.13-1.3-4.61a1.51,1.51,0,0,0-1.48-.87,4.57,4.57,0,0,1-2.79-1.09,13.69,13.69,0,0,1-2.14-1.82c-0.67-.7-6.59-3.17-8.09-2.49l0,0a15.38,15.38,0,0,1-1.73-.36c-0.64-.16-1.17.38-1.72,0.24-0.74-.2-0.66-1.15-1.25-1.52a5.33,5.33,0,0,0-.9-0.46c-0.56-.22-1.13-0.34-1.65-0.61s-0.73-.32-1.1-0.46Q157.55,315.55,168,326A0.47,0.47,0,0,1,168.11,325.87Z" transform="translate(-2.74 -69.12)" style="fill:#2a6fb8"/><path d="M154.49,354.22c0.19,0,3-2.37,3.14-2.38a2.69,2.69,0,0,0,.11-0.6,3.82,3.82,0,0,1,.84-1.83c0.12-.2.24-0.41,0.34-0.61q-33.79-33.67-67.48-67.5c0.55,2.23,1.16,4.44,1.79,6.63q28.15,27.73,56.49,56c-18.06-17.92-39.88-39.21-56.49-56,0.83,2.3,5.95,12.92,6.86,15.19q25.69,25.72,51.54,51.68A5.52,5.52,0,0,1,154.49,354.22Z" transform="translate(-2.74 -69.12)" style="fill:#2a6fb8"/><path d="M136,293.3a13.15,13.15,0,0,0-3.19-2.24c1.53,1.54,3.09,3.06,4.63,4.57a1,1,0,0,1-.06-0.22A4.18,4.18,0,0,0,136,293.3Z" transform="translate(-2.74 -69.12)" style="fill:#2a6fb8"/><path d="M162.07,342.42a6.69,6.69,0,0,0,.63-3c0-.39,0-0.72,0-1.1,0-.68,0-4.45.62-4.91a4.13,4.13,0,0,0,1.16-1.2Q144.41,312.12,124.41,292a8.19,8.19,0,0,1-3.9-2.62,8.18,8.18,0,0,0-3.07-2.57l-2.3-2.32a1.3,1.3,0,0,1,.51-1.22l0.05-.07c-0.41-.41-0.8-0.83-1.2-1.23a10.08,10.08,0,0,1-1.82.07,45.75,45.75,0,0,1-7-1.17,7.56,7.56,0,0,0-2.91-.18,1.54,1.54,0,0,1-1.86-1,1.24,1.24,0,0,0-1-.76,3.4,3.4,0,0,1-2.55-1.88,0.58,0.58,0,0,0-1,.07q32.81,32.47,65.6,65.43S162,342.48,162.07,342.42Z" transform="translate(-2.74 -69.12)" style="fill:#2a6fb8"/><path d="M146.14,358.42q-21.47-21.6-42.94-43.31l18,28.88c8.36,8.25,9.58,9.58,14,14.1l-14-14.1a170.81,170.81,0,0,0,21,23,4.53,4.53,0,0,0-.12-2.07C142.94,364.17,145.17,359,146.14,358.42Z" transform="translate(-2.74 -69.12)" style="fill:#2a6fb8"/><path d="M411.19,293.4a2.77,2.77,0,0,0,2.57-1.84c-1.56-1.52-3.13-3-4.7-4.5-0.07.52-.15,1.06-0.24,1.55a11.68,11.68,0,0,0,.77,3.82A1.52,1.52,0,0,0,411.19,293.4Z" transform="translate(-2.74 -69.12)" style="fill:#2a6fb8"/><path d="M265.65,219.7l-17,41.44H251a1.11,1.11,0,0,0,.7-0.23,1.32,1.32,0,0,0,.41-0.56l4.87-12H277.3l4.86,12a1.56,1.56,0,0,0,.4.57,1,1,0,0,0,.67.22h2.32l-17-41.44h-3Zm-7.78,26.38,8.43-20.91c0.15-.35.3-0.73,0.44-1.15s0.26-.88.37-1.33a22,22,0,0,0,.86,2.46l8.43,20.94H257.86Zm-214.7-27h7.55v42.68H42V237.21c0-.57,0-1.19.06-1.85s0.08-1.34.16-2L30.85,255.28a3.8,3.8,0,0,1-1.42,1.56,4,4,0,0,1-2,.51H26.05a4,4,0,0,1-2-.51,3.71,3.71,0,0,1-1.4-1.56l-11.35-22c0.05,0.71.12,1.4,0.15,2.07s0.06,1.29.06,1.86v24.55H2.74V219.07h7.55c0.44,0,.82,0,1.13,0a2.66,2.66,0,0,1,.87.17,2,2,0,0,1,.68.46,3.2,3.2,0,0,1,.61.86l11,21.65c0.38,0.74.76,1.51,1.13,2.31s0.7,1.63,1,2.46c0.34-.85.68-1.7,1-2.51a25.31,25.31,0,0,1,1.15-2.34l11-21.57a3.39,3.39,0,0,1,.59-0.86,1.92,1.92,0,0,1,.69-0.46,2.66,2.66,0,0,1,.86-0.17C42.34,219.08,42.73,219.07,43.17,219.07Zm16.55,32.26a19.63,19.63,0,0,1-1.27-7.2V218.85h9.91v25.24a13.23,13.23,0,0,0,.57,4,8.52,8.52,0,0,0,1.65,3,7.29,7.29,0,0,0,2.65,1.9,9.15,9.15,0,0,0,3.57.66,9,9,0,0,0,3.55-.66A7.1,7.1,0,0,0,83,251.15a8.13,8.13,0,0,0,1.66-3,13.26,13.26,0,0,0,.56-4V218.85h9.91v25.28a19.51,19.51,0,0,1-1.28,7.2,15.91,15.91,0,0,1-9.42,9.33,22.84,22.84,0,0,1-15.31,0A15.78,15.78,0,0,1,59.71,251.33Zm71.66-32.26h8.74v42.68H135a4.37,4.37,0,0,1-1.92-.37,4.53,4.53,0,0,1-1.54-1.27l-20.12-25.47c0.08,0.77.14,1.51,0.16,2.23s0.05,1.39.05,2v22.88h-8.73V219.07h5.21a7.19,7.19,0,0,1,1.06.06,2.43,2.43,0,0,1,.81.22,3,3,0,0,1,.67.44,8.33,8.33,0,0,1,.74.79l20.3,25.63c-0.11-.82-0.17-1.62-0.21-2.38s-0.06-1.49-.06-2.17v-22.6ZM174,260.15a20.32,20.32,0,0,0,7-4.45,19.76,19.76,0,0,0,4.5-6.77,23.47,23.47,0,0,0,0-17,19.78,19.78,0,0,0-4.5-6.75,20.67,20.67,0,0,0-7-4.46,24.51,24.51,0,0,0-9.05-1.61H148.37v42.68H165A24.45,24.45,0,0,0,174,260.15ZM158.32,226.7H165a12.81,12.81,0,0,1,5.06.95,10.15,10.15,0,0,1,3.76,2.72,12,12,0,0,1,2.35,4.32,20.12,20.12,0,0,1,0,11.46,11.86,11.86,0,0,1-2.35,4.32,10.23,10.23,0,0,1-3.76,2.73,13,13,0,0,1-5.06.94h-6.64V226.7Zm54.37-8.09a23.61,23.61,0,0,0-9.08,1.68,20.62,20.62,0,0,0-7,4.59,20.36,20.36,0,0,0-4.51,6.91,23.88,23.88,0,0,0,0,17.22,20.36,20.36,0,0,0,11.53,11.55,25.71,25.71,0,0,0,18.15,0,20.66,20.66,0,0,0,7-4.61,20.92,20.92,0,0,0,4.5-6.94,24.07,24.07,0,0,0,0-17.19,20.71,20.71,0,0,0-4.5-6.92,21.07,21.07,0,0,0-7-4.62A23.62,23.62,0,0,0,212.69,218.61Zm12,21.79a18.87,18.87,0,0,1-.82,5.73,11.72,11.72,0,0,1-2.36,4.28,10.06,10.06,0,0,1-3.77,2.68,14.35,14.35,0,0,1-10.17,0,10,10,0,0,1-3.79-2.68,12,12,0,0,1-2.36-4.28,18.63,18.63,0,0,1-.82-5.73,18.39,18.39,0,0,1,.82-5.69,12.32,12.32,0,0,1,2.36-4.3,10.32,10.32,0,0,1,3.79-2.69,14.21,14.21,0,0,1,10.17,0,10.38,10.38,0,0,1,3.77,2.69,12,12,0,0,1,2.36,4.3A18.62,18.62,0,0,1,224.7,240.41Zm94,12.79a4.56,4.56,0,0,0,1.49-3.77,3.6,3.6,0,0,0-.82-2.43,6.35,6.35,0,0,0-2.16-1.55,19.2,19.2,0,0,0-3-1.08c-1.13-.31-2.29-0.66-3.49-1a25.29,25.29,0,0,1-3.49-1.4,11.1,11.1,0,0,1-3-2.2,10.46,10.46,0,0,1-2.15-3.4,13.58,13.58,0,0,1-.82-5,11.71,11.71,0,0,1,1-4.69,12.2,12.2,0,0,1,2.83-4.07,14.31,14.31,0,0,1,4.61-2.86,17.31,17.31,0,0,1,6.24-1.06,23,23,0,0,1,3.81.31,19.64,19.64,0,0,1,3.53.9,20.52,20.52,0,0,1,3.13,1.44,13.6,13.6,0,0,1,2.59,1.88l-2.47,4.59a3.48,3.48,0,0,1-.92,1.06,1.93,1.93,0,0,1-1.25.35,3,3,0,0,1-1.45-.42l-1.76-1a16.37,16.37,0,0,0-2.23-1,9,9,0,0,0-2.87-.42,6.19,6.19,0,0,0-4.15,1.19,4.06,4.06,0,0,0-1.35,3.21,3,3,0,0,0,.82,2.13,7,7,0,0,0,2.15,1.48,25.16,25.16,0,0,0,3,1.12c1.13,0.34,2.3.72,3.51,1.14a31,31,0,0,1,3.49,1.48,11.61,11.61,0,0,1,3,2.17,9.85,9.85,0,0,1,2.16,3.21,11.3,11.3,0,0,1,.82,4.55,15.08,15.08,0,0,1-1,5.54,12.93,12.93,0,0,1-3,4.49,13.94,13.94,0,0,1-4.81,3,18,18,0,0,1-6.5,1.09,20.12,20.12,0,0,1-4-.41,23.84,23.84,0,0,1-4-1.16,23.12,23.12,0,0,1-3.63-1.76,15.75,15.75,0,0,1-3-2.29l2.92-4.62a3.12,3.12,0,0,1,.93-0.84,2.41,2.41,0,0,1,1.25-.33,3.35,3.35,0,0,1,1.79.55q0.87,0.56,2,1.22a15.25,15.25,0,0,0,2.6,1.24,9.71,9.71,0,0,0,3.45.56A6.61,6.61,0,0,0,318.66,253.2Zm45.44,7.37A20.29,20.29,0,0,0,375.58,249a23.89,23.89,0,0,0,0-17.19,20.57,20.57,0,0,0-4.49-6.92,21.24,21.24,0,0,0-7-4.62,25.37,25.37,0,0,0-18.15,0,20.48,20.48,0,0,0-7,4.59,20.27,20.27,0,0,0-4.52,6.91,23.94,23.94,0,0,0,0,17.22A20.43,20.43,0,0,0,346,260.57,25.71,25.71,0,0,0,364.1,260.57Zm-18-10.15a12,12,0,0,1-2.35-4.28,18.41,18.41,0,0,1-.81-5.73,18.17,18.17,0,0,1,.81-5.69,12.34,12.34,0,0,1,2.35-4.3,10.37,10.37,0,0,1,3.79-2.69,13.19,13.19,0,0,1,5.11-.94,13,13,0,0,1,5.06.94,10.25,10.25,0,0,1,3.76,2.69,12.22,12.22,0,0,1,2.36,4.3,18.92,18.92,0,0,1,.82,5.69,19.17,19.17,0,0,1-.82,5.73,11.92,11.92,0,0,1-2.36,4.28,9.93,9.93,0,0,1-3.76,2.68A13.08,13.08,0,0,1,355,254a13.32,13.32,0,0,1-5.11-.93A10,10,0,0,1,346.14,250.42Zm62.7-3.52a8.2,8.2,0,0,0-1.52-1.76,9,9,0,0,0-1.81-1.24,14.25,14.25,0,0,0,3.66-2,13.18,13.18,0,0,0,2.7-2.8,12.3,12.3,0,0,0,1.63-3.42,13.68,13.68,0,0,0,.56-3.92,13,13,0,0,0-.95-5,9.81,9.81,0,0,0-3-4,15,15,0,0,0-5.33-2.65,28.14,28.14,0,0,0-7.89-1H383v42.68h9.89V246h2.52a3.4,3.4,0,0,1,1.75.36,3.26,3.26,0,0,1,1.11,1.16l7.09,12.39a3.81,3.81,0,0,0,3.57,1.87h9ZM404,235.08a5.44,5.44,0,0,1-1.33,2.13,6.1,6.1,0,0,1-2.34,1.41,9.83,9.83,0,0,1-3.42.51h-4V226.49h4c2.56,0,4.43.53,5.66,1.58a5.48,5.48,0,0,1,1.84,4.4A8,8,0,0,1,404,235.08Zm17.55,26.67h9.9V246h2.5a3.55,3.55,0,0,1,1.78.36,3.49,3.49,0,0,1,1.1,1.16l7.08,12.39a3.81,3.81,0,0,0,3.58,1.87h9l-9.09-14.86a8.27,8.27,0,0,0-1.52-1.76,8.91,8.91,0,0,0-1.83-1.24,14.77,14.77,0,0,0,3.68-2,12.83,12.83,0,0,0,2.69-2.8,12.24,12.24,0,0,0,1.63-3.42,14.16,14.16,0,0,0-.37-8.95,10.11,10.11,0,0,0-3-4,14.87,14.87,0,0,0-5.32-2.65,28.22,28.22,0,0,0-7.89-1H421.53v42.68Zm9.9-35.27h4c2.55,0,4.44.53,5.67,1.58a5.54,5.54,0,0,1,1.81,4.4,7.86,7.86,0,0,1-.41,2.62,5.48,5.48,0,0,1-1.3,2.13,6.4,6.4,0,0,1-2.33,1.41,10.12,10.12,0,0,1-3.44.51h-4V226.49Zm28.62-7.41h10v42.68h-10V219.07Zm44,27.83a8.32,8.32,0,0,0-1.52-1.76,9,9,0,0,0-1.82-1.24,14.73,14.73,0,0,0,3.67-2,12.73,12.73,0,0,0,2.68-2.8,11.89,11.89,0,0,0,1.65-3.42,13.75,13.75,0,0,0,.55-3.92,13.08,13.08,0,0,0-.94-5,10,10,0,0,0-3-4A14.92,14.92,0,0,0,500,220a28.22,28.22,0,0,0-7.9-1H478.26v42.68h9.89V246h2.53a2.9,2.9,0,0,1,2.88,1.52l7.07,12.39a3.81,3.81,0,0,0,3.58,1.87h9Zm-4.87-11.82a5.4,5.4,0,0,1-1.32,2.13,6.23,6.23,0,0,1-2.32,1.41,10.1,10.1,0,0,1-3.45.51h-4V226.49h4q3.85,0,5.67,1.58a5.5,5.5,0,0,1,1.84,4.4A7.89,7.89,0,0,1,499.22,235.08Z" transform="translate(-2.74 -69.12)"/><path d="M155,114.74c-0.21-.21-0.44-0.41-0.66-0.64a1.77,1.77,0,0,0,.39.05,0.37,0.37,0,0,1,.28.57A0,0,0,0,1,155,114.74Z" transform="translate(-2.74 -69.12)" style="fill:#2a6fb8"/><path d="M259.88,164.6v0c2.7,2.69,5.41,5.4,8.11,8.1a1.37,1.37,0,0,1,.35-0.05,4.19,4.19,0,0,0,1-.15c0.63-.16-0.79-6-0.43-6.42a1.91,1.91,0,0,0,0-.29c0.06-.61.78-0.85,1.29-1.17a3.23,3.23,0,0,0,1.2-1.34q-8.16-8.24-16.26-16.4c-0.28.42-.55,0.84-0.84,1.26a0.78,0.78,0,0,1-.81.49c-0.87-.42-0.87-0.42-1.7.59-0.54-.47-2.24,2.83-2.82,3.24a2,2,0,0,0-.6.69l10.32,10.28C259.1,163.84,259.49,164.22,259.88,164.6Z" transform="translate(-2.74 -69.12)" style="fill:#2a6fb8"/><path d="M121.68,185.75a11,11,0,0,0,3.74-.19l3.12,3.14h0l0.54,0.56c2.94,2.89,5.82,5.81,8.76,8.71a2.79,2.79,0,0,0-.1-1.77c-0.33-.6-1.07-1.05-0.39-1.85a0.53,0.53,0,0,0-.25-0.36c-0.75-.15-0.71-0.49-0.36-1.06s-0.09-1.08-.49-1.53a1.07,1.07,0,0,0-1.38-.21,5.06,5.06,0,0,1-1.18.42c-0.46.05-.9-0.08-0.7-0.7a0.88,0.88,0,0,0-.17-0.93c-0.74-.75-0.49-1.28.34-1.8a0.64,0.64,0,0,1,.11-0.1c-0.61-.64-1.23-1.24-1.85-1.87l-0.28.17h-1.52a2.39,2.39,0,0,0-1.4.44,7.83,7.83,0,0,1-.29-1.73,2.11,2.11,0,0,1,1.81-.76h1.52a2.6,2.6,0,0,0,.27-0.17Q119,171.73,106.62,159.27c-0.62,1.14-1.8,3.84-2.4,5s-1.3,2.62-1.8,3.71q8.89,8.79,17.75,17.6C120.67,185.63,121.18,185.67,121.68,185.75Z" transform="translate(-2.74 -69.12)" style="fill:#2a6fb8"/><path d="M100.57,204.62h7.19c-4.64-4.67-9.29-9.32-13.93-14-0.49,1.51-1.21,4-1.67,5.49,1.74,1.71,2.92,2.93,4.08,4.12l-4.08-4.12c-0.41,1.51-.79,3.05-1.13,4.57l4,3.94h5.56Z" transform="translate(-2.74 -69.12)" style="fill:#2a6fb8"/><path d="M118.73,196.45a1.13,1.13,0,0,0,.07,1.63,2.25,2.25,0,0,0,1.25.83,5,5,0,0,0,2.76-.09l0.35-.1-3.56-3.47A1.76,1.76,0,0,1,118.73,196.45Z" transform="translate(-2.74 -69.12)" style="fill:#2a6fb8"/><path d="M114.52,201.87q-9.21-9.16-18.4-18.31c0.52-1.52,1.06-3,1.64-4.52,2,2.08,2.15,2.1,0,0,0.55-1.39,1.49-3.43,2.07-4.81,4.46,4.52,8.9,9,13.38,13.54a1.9,1.9,0,0,0-1.46.74,13.19,13.19,0,0,1-2.63,2.11l9.47,9.64c-0.68.22-1.37,0.42-2.06,0.59A4.26,4.26,0,0,0,114.52,201.87Z" transform="translate(-2.74 -69.12)" style="fill:#2a6fb8"/><polygon points="105 120.11 104.98 120.1 104.98 120.11 105 120.11" style="fill:#2a6fb8"/><path d="M110.92,204.19c-0.18-.21-0.39-0.39-0.59-0.59a2.47,2.47,0,0,0,.53.55A0.11,0.11,0,0,1,110.92,204.19Z" transform="translate(-2.74 -69.12)" style="fill:#2a6fb8"/><path d="M135.59,178.55a2,2,0,0,1,.18-1,1.79,1.79,0,0,0-.66-2,3.66,3.66,0,0,1-1-.77c-0.39-.65-1.31-1.06-0.89-2.13a1.1,1.1,0,0,0-.84-1.17c-2.35-.63-3.8-2.37-5.25-4.14a1.23,1.23,0,0,1-.15-1.81,2.08,2.08,0,0,0,.18-0.29l-7.72-7.86-4.57-4.66-2.77-2.82c-0.73,1.21-1.47,2.4-2.17,3.61q12.81,12.6,25.67,25.29A0.72,0.72,0,0,0,135.59,178.55Z" transform="translate(-2.74 -69.12)" style="fill:#2a6fb8"/><path d="M113.06,191.11c-0.43.61,0.39,1,.45,1.61a4.77,4.77,0,0,0,.11.76,0.68,0.68,0,0,0,1.17.36c0.61-.6,1.15-1.25,1.73-1.84l-1.92-1.92-0.3.16A4.16,4.16,0,0,0,113.06,191.11Z" transform="translate(-2.74 -69.12)" style="fill:#2a6fb8"/><path d="M123.4,154.07a0.63,0.63,0,0,0-1.05-.15c-0.58.86-1.19,1.7-1.7,2.6l4.49,4.46c-0.55-2.23-1.11-4.44-1.64-6.67C123.47,154.23,123.43,154.16,123.4,154.07Z" transform="translate(-2.74 -69.12)" style="fill:#2a6fb8"/><path d="M136.45,129.91l-0.29.2s-3.87-3.31-5.69-5.16c-1,1.12-1.45,1.63-2.41,2.78,1.68,1.64,3.37,3.3,5,5C134.44,132.07,135.19,130.68,136.45,129.91Z" transform="translate(-2.74 -69.12)" style="fill:#2a6fb8"/><path d="M130.13,138.9l0.14,0-1.72-1.74A3.37,3.37,0,0,0,130.13,138.9Z" transform="translate(-2.74 -69.12)" style="fill:#2a6fb8"/><path d="M124.2,144.89a2.69,2.69,0,0,0-.3-1.48,13.17,13.17,0,0,0-1.81-2.76c-0.13-.19-0.64-0.37-0.09-0.79a30.58,30.58,0,0,0,3,2.37,3.47,3.47,0,0,1,.78,1c0.3,0.37.42,1.11,1,1,0.78-.12.22-0.83,0.37-1.25,0.08-.22.13-0.48,0.23-0.73-0.43-.42-0.86-0.86-1.29-1.29a6.31,6.31,0,0,1-.07-1,2.66,2.66,0,0,0-1.37-2.56,2.7,2.7,0,0,1-1.08-3.15,2.43,2.43,0,0,1,.4-0.89,0.49,0.49,0,0,0-.11-0.1c-0.8,1-1.6,2-2.39,3l-0.06-.07c-0.89,1.18-1.72,2.38-2.58,3.59l5.37,5.28A1.08,1.08,0,0,0,124.2,144.89Z" transform="translate(-2.74 -69.12)" style="fill:#2a6fb8"/><path d="M160.09,111a0.37,0.37,0,0,1,.28.57,0,0,0,0,1,0,0q11.63,11.34,23.31,22.79a32.14,32.14,0,0,1,3.13-4.41,6.35,6.35,0,0,1,2.89-1.85q-14.6-14.73-29.17-29.42c-1.46,1-2.34,2-3.76,3.06,0.29,0.28.29,0.3,0.58,0.58a0.51,0.51,0,0,0-.08.26,13.66,13.66,0,0,1-1,4.47,1.65,1.65,0,0,0-.09.47c1.16,1.14,2.34,2.27,3.5,3.42A1.88,1.88,0,0,0,160.09,111Z" transform="translate(-2.74 -69.12)" style="fill:#2a6fb8"/><path d="M217.56,80.07a0.4,0.4,0,0,1,.28-0.6,1.15,1.15,0,0,0,.75-1.19,31.66,31.66,0,0,1,.33-3.37l-1.61-1.67a5.7,5.7,0,0,1,1.09-2c0.63-.71.12-1.1,0.52-1.8-1.66.42-2.59,0.71-4.12,1.18l0,0c-2,.6-4,1.22-6.07,1.9,3.13,2.91,6.24,5.86,9.35,8.83A3.61,3.61,0,0,0,217.56,80.07Z" transform="translate(-2.74 -69.12)" style="fill:#2a6fb8"/><path d="M152.54,121.78a9.4,9.4,0,0,0,1-.21c1.35-.37,1.53-0.84.88-2.2a2.67,2.67,0,0,1-.13-0.4L156,119a2.25,2.25,0,0,0-.61.78,2.27,2.27,0,0,1,.18,1.73c0,0.09-.08.18-0.11,0.26h0a0.39,0.39,0,0,1,0,.11c-0.19.39-.37,0.78-0.54,1.17a2.45,2.45,0,0,1-.27.48c-0.35.39-1.18-.19-1.4,0.21a17.11,17.11,0,0,0-.29,2q9,8.92,18.09,17.85a7.29,7.29,0,0,1,1.67-1.94,2,2,0,0,0,.72-1.27c-0.45-.44-0.87-0.9-1.32-1.35a2.45,2.45,0,0,1,1.12-.3c0.3,0,4.1-1.22,4.39-1.23-6.09-6.23-13.21-12.93-19.37-19.19-1.13-1.55-5.32-4.89-6.28-5.85,0,0.09-1,2.86-1,3l-0.14.43c-0.24.89-.58,1.26-0.8,2.12a3.38,3.38,0,0,0,.4,2.7A1.94,1.94,0,0,0,152.54,121.78Z" transform="translate(-2.74 -69.12)" style="fill:#2a6fb8"/><path d="M149.44,139.93c0,0.45.12,0.91,0.2,1.38q2.7,2.62,5.38,5.27c0.05,0.39.11,0.78,0.17,1.15a4.08,4.08,0,0,0,1.35,2.63,2.35,2.35,0,0,1,.59.44c-0.23,1.46.65,1.22,1.55,1.11,0.54-.05,1.13,0,1.76,0l0.55,0.54c0.34,1.17.9,2.16,2.31,2.27l0.34,0.34c0-.08,0-0.17,0-0.24,0.17-1.27,4.06-3.36,4.67-4.41-5.53-5.6-14.39-14.3-19.9-19.9a64.81,64.81,0,0,0,.42,6.73A10.59,10.59,0,0,1,149.44,139.93Z" transform="translate(-2.74 -69.12)" style="fill:#2a6fb8"/><path d="M193.6,78.84l0.94-.4h0a69.33,69.33,0,0,1,6.64-2.71c4.24,4.28,8.46,8.57,12.71,12.85a11.36,11.36,0,0,0-.69,3.44,0.48,0.48,0,0,1-.13.26c1,1.05,2,2.11,3.07,3.15a1,1,0,0,0,.58,1.28c0.58,0.3.49,0.71,0.26,1.27a3.08,3.08,0,0,1-2.07,1.48Q204.19,89.06,193.6,78.84Z" transform="translate(-2.74 -69.12)" style="fill:#2a6fb8"/><path d="M209.88,89c0.36,0.37.74,0.74,1.08,1.11s0.84,0.86,1.26,1.29c0-.46-0.09-0.91-0.16-1.37a4.87,4.87,0,0,0-.26-1.24,1.29,1.29,0,0,0-1.2-.8A1,1,0,0,0,209.88,89Z" transform="translate(-2.74 -69.12)" style="fill:#2a6fb8"/><path d="M209.33,116.31a0.9,0.9,0,0,0,.82-0.87,9,9,0,0,0-.4-5l-1.94-2a4.05,4.05,0,0,0,.06-2.73,0.56,0.56,0,0,1,.18-0.86,7.55,7.55,0,0,1,1.86-.82c0.11,0-14.68-14.33-23.24-22.39-1.7.79-2,1-3.66,1.8l0,0c-1.43.75-2.84,1.52-4.22,2.31Q194.09,100.78,209.33,116.31Z" transform="translate(-2.74 -69.12)" style="fill:#2a6fb8"/><path d="M196.1,125.51c0.78-.17,1.55-0.34,2.33-0.53a38.3,38.3,0,0,0,3.58-1.6c0.73-.58,1.59-1,2.36-1.54,0.14-.1.3-0.24,0.46-0.35l-2.49-2.53a4.47,4.47,0,0,1-.83-0.55,0.86,0.86,0,0,1-.07-0.35q-14-14.18-27.87-28.33c-1.06.62-2.4,1.56-3.6,2.45a0.05,0.05,0,0,0,0,0c-0.71.46-1.68,1.28-2.89,2.18l-0.15.1h0c-0.29.2-.56,0.42-0.88,0.62C176.08,105.1,186,115.33,196.1,125.51Z" transform="translate(-2.74 -69.12)" style="fill:#2a6fb8"/><path d="M339.15,88c-1.46-.77-5.12-1.53-6.63-2.25a0.07,0.07,0,0,0-.06,0c-0.64.21-1.28,0.37-1.91,0.54,1.36,1.3,2.7,2.62,4.08,3.93Z" transform="translate(-2.74 -69.12)" style="fill:#2a6fb8"/><path d="M323.17,98.61l5,4.87a9.44,9.44,0,0,1,.53-1.88,11.66,11.66,0,0,0,.5-2c0.06-.35.09-0.69,0.15-1,0.8-.56.94-2.64,1.33-3.5,0.26-.54.55-1.05,0.85-1.58-1.55-1.6-3.08-3.19-4.64-4.78a4,4,0,0,1-1.75,1.4,2,2,0,0,0-.41.88c-0.31.66-.56,1.38-0.89,2l-0.44-.45a0.7,0.7,0,0,0-.24,1A4.82,4.82,0,0,1,323.17,98.61Z" transform="translate(-2.74 -69.12)" style="fill:#2a6fb8"/><path d="M322.15,109.52l6.92,7a5.36,5.36,0,0,0,1.51.1c0.57,0,1,.08,1.4.08a1.06,1.06,0,0,0,1.17-.77,1.8,1.8,0,0,0,.11-0.62l-2.07-2.1-1.12-1.16c-2.47-2.5-4.89-5-7.35-7.54-0.17.44-.34,0.88-0.53,1.3a1.75,1.75,0,0,0,.13,1.9A1.3,1.3,0,0,1,322.15,109.52Z" transform="translate(-2.74 -69.12)" style="fill:#2a6fb8"/><path d="M226.49,191.68c0.62-.12,2.34-1.78,3-1.9a2.11,2.11,0,0,1,1.33-.86l-2.19-2.19a27.21,27.21,0,0,0-3.57,3.63C225.42,190.75,226.1,191.3,226.49,191.68Z" transform="translate(-2.74 -69.12)" style="fill:#2a6fb8"/><path d="M227.88,186l-1.29-1.29a0.81,0.81,0,0,0,.65,1.15A5.1,5.1,0,0,0,227.88,186Z" transform="translate(-2.74 -69.12)" style="fill:#2a6fb8"/><path d="M254.69,79.38a2.65,2.65,0,0,0,2.31,3.7c0.91,0.06,1.64.49,1.64,1.21,0,1.08.68,1.93,0.76,3a2.43,2.43,0,0,0,.76,1.59,25.08,25.08,0,0,1,3.24,3.59,0.8,0.8,0,0,0,.91.29,0.91,0.91,0,0,0,.77-0.88c0.07-.33,0-0.69.07-1,0.15-.71.25-1.42,0.41-2.12-0.3-.3-0.59-0.59-0.88-0.9L265,88.12c0-.12.05-0.25,0.07-0.36,0.12-1.09.33-2.19,0.56-3.27a1.33,1.33,0,0,1,.85-1.2c0.33,0.85.63,1.72,1,2.53a4.1,4.1,0,0,1,.36,3.4c-0.25.68,0.26,1.06,1.07,0.79s1.29-.41,1.63.5c0.09,0.23.44,0.18,0.67,0a4.33,4.33,0,0,0,1.33-1.46c-4.42-4.6-8.81-9.15-13.17-13.72a6.67,6.67,0,0,0-.23.65,0.64,0.64,0,0,1-.82.43,2,2,0,0,1-.74-0.2c-1.27-.81-2.47,0-3.69.13a0.82,0.82,0,0,0-.59.43,1.59,1.59,0,0,0-.06.15c0.57,0.53,1.15,1.09,1.72,1.63A2,2,0,0,1,254.69,79.38Z" transform="translate(-2.74 -69.12)" style="fill:#2a6fb8"/><path d="M131.36,195a0.57,0.57,0,0,0,.75.64,4.15,4.15,0,0,0,.71-0.4,0.8,0.8,0,0,1,.38-0.19c-1.67-1.69-3.34-3.37-5-5.05a2.58,2.58,0,0,1-1,.73,0.9,0.9,0,0,0-.6,1,1.11,1.11,0,0,1-.23.73l1.48,1.46c0.89,0,1.77.23,2.67,0.22A0.72,0.72,0,0,1,131.36,195Z" transform="translate(-2.74 -69.12)" style="fill:#2a6fb8"/><path d="M265.29,73.07l1.62,1.56a3.25,3.25,0,0,1,1.26.82,4.46,4.46,0,0,0,2.26,1.11,5,5,0,0,1,2.39.71,1.28,1.28,0,0,0,1.44-.15,3.16,3.16,0,0,1,1.05-.65,2.15,2.15,0,0,0,1-.43l-1.64-1.66c0.18,0.16.34,0.31,0.5,0.46,0.17-.31.36-0.6,0.55-0.91a5.14,5.14,0,0,0,.76-2.85A18.77,18.77,0,0,1,273,70.3c-1.07-.47-2.34-0.31-3.32-1.13a0.21,0.21,0,0,0-.12,0H269.4a0.48,0.48,0,0,0-.18.1l1.23,1.15a4,4,0,0,1-2-.74c-0.83-.71-0.81-0.48-2,0.12a1.92,1.92,0,0,0-1.18,2.45A3.57,3.57,0,0,1,265.29,73.07Z" transform="translate(-2.74 -69.12)" style="fill:#2a6fb8"/><path d="M226.59,173c-0.19-.38-0.38-0.78-0.55-1.16,0.41-.07,1-0.34,1.09.19a1.51,1.51,0,0,0,1.52,1.37c1.4,0.24,1.76,1.45,2.1,2.58a1,1,0,0,1-.84,1.07c-0.26,0-.52-0.06-0.78-0.06a0.8,0.8,0,0,0-.21,0c2.67,2.64,5.35,5.31,8,8,0.23,0,.46-0.06.68-0.11a3.61,3.61,0,0,0,2-1c0.24-.24,1.89-1.36,1.78-1.65-2-2-4.2-4.21-6.45-6.45l-0.24-.51a4.83,4.83,0,0,0-1.41-2.08,1.55,1.55,0,0,1-.4-2.24,7.78,7.78,0,0,0,.52-1.52c-0.59-.63-1.21-1.25-1.83-1.88-0.25,0-.47-0.08-0.69-0.12l0.15-.42c-0.61-.63-1.21-1.25-1.85-1.87a2.79,2.79,0,0,0-2.09,1.78,0.48,0.48,0,0,1-.64.23,0.6,0.6,0,0,1-.2-0.44c0-.33.11-0.73-0.32-0.87a1,1,0,0,0-1.06.38l0.69,0.69c0,0.89-.06,2.52-0.46,2.88s0,0.62.19,0.92a8.89,8.89,0,0,1,.46.9c-0.59-.12-1.18-0.25-1.74-0.33a4.6,4.6,0,0,0-1,0l3.46,3.42A1.51,1.51,0,0,0,226.59,173Z" transform="translate(-2.74 -69.12)" style="fill:#2a6fb8"/><path d="M216.4,179.28a4.15,4.15,0,0,0,.07,2.61c0.08,0.07,1,.88,1.06,1,1.34,1.33,2.59,2.54,3.92,3.87,0.38-.15,1.37-2.36,1.78-2.44a2.25,2.25,0,0,0,1.57-1.39L219,177.06a0.13,0.13,0,0,1-.09,0A2.73,2.73,0,0,0,216.4,179.28Z" transform="translate(-2.74 -69.12)" style="fill:#2a6fb8"/><path d="M319.11,125.26a0.79,0.79,0,0,0,.23,0,2,2,0,0,0,.81-0.37c-0.77-.8-1.54-1.58-2.31-2.37a1.61,1.61,0,0,0-.17.66A1.91,1.91,0,0,0,319.11,125.26Z" transform="translate(-2.74 -69.12)" style="fill:#2a6fb8"/><path d="M125.88,146.48a1.09,1.09,0,0,0-.48-0.52,0.72,0.72,0,0,0-.33.1c0.3,0.3.61,0.58,0.89,0.88A1.17,1.17,0,0,0,125.88,146.48Z" transform="translate(-2.74 -69.12)" style="fill:#2a6fb8"/><path d="M118.1,152.29a0.49,0.49,0,0,0-.51-0.48l-0.24.08c0.23,0.22.46,0.45,0.69,0.68A0.88,0.88,0,0,0,118.1,152.29Z" transform="translate(-2.74 -69.12)" style="fill:#2a6fb8"/><path d="M337.57,121a0.85,0.85,0,0,0,.22-0.36,1.38,1.38,0,0,0-1-.71,0.45,0.45,0,0,0-.24,0,0.79,0.79,0,0,0,0,.43A1.09,1.09,0,0,0,337.57,121Z" transform="translate(-2.74 -69.12)" style="fill:#2a6fb8"/><path d="M219.6,74.22a0.71,0.71,0,0,0,.67-0.9,0.46,0.46,0,0,0-.5-0.48,0.7,0.7,0,0,0-.54.79A0.53,0.53,0,0,0,219.6,74.22Z" transform="translate(-2.74 -69.12)" style="fill:#2a6fb8"/><path d="M219.4,81.24a0.49,0.49,0,0,0,.22.39,0.41,0.41,0,0,0,.49-0.39,0.73,0.73,0,0,0-.22-0.4A0.38,0.38,0,0,0,219.4,81.24Z" transform="translate(-2.74 -69.12)" style="fill:#2a6fb8"/><path d="M271.29,168.47c0.45,0.44.9,0.88,1.31,1.3a10.21,10.21,0,0,0,.55-2.08,2.29,2.29,0,0,0-1.77.65A0.52,0.52,0,0,1,271.29,168.47Z" transform="translate(-2.74 -69.12)" style="fill:#2a6fb8"/><path d="M275.57,158.49a0.78,0.78,0,0,0,.87.7,0.73,0.73,0,0,0-.25-1.38A0.64,0.64,0,0,0,275.57,158.49Z" transform="translate(-2.74 -69.12)" style="fill:#2a6fb8"/><path d="M335.1,117.43a4.38,4.38,0,0,0,1.06,1.06l0.51,0.34c-0.57-.6-1.13-1.18-1.72-1.76A0.86,0.86,0,0,0,335.1,117.43Z" transform="translate(-2.74 -69.12)" style="fill:#2a6fb8"/><path d="M362.2,128.9c-0.16.24-.32,0.42-0.46,0.63S361.51,130,362.2,128.9Z" transform="translate(-2.74 -69.12)" style="fill:#2a6fb8"/><path d="M331.64,204a2.53,2.53,0,0,1-.65-2.49q-20.82-20.73-41.57-41.71c-0.61.39-1,1.18-1.65,1.24a10.6,10.6,0,0,1-2.45-.39s-1.43,1.17-1.47,1.2a6.24,6.24,0,0,1-2,1.07,0.63,0.63,0,0,0-.47,1,0.33,0.33,0,0,1-.22.48l1.38,1.36,0.2-.17a1.16,1.16,0,0,1,1.73.46,2.69,2.69,0,0,1,.38,2q14.66,14.57,29.29,29.16a7.89,7.89,0,0,1,1.09-.37,1.3,1.3,0,0,1,.49.1,0.92,0.92,0,0,1-.49.82,1.71,1.71,0,0,0-.23.32l6.63,6.61h10.49A5.94,5.94,0,0,0,331.64,204Z" transform="translate(-2.74 -69.12)" style="fill:#2a6fb8"/><path d="M297.6,135.65a2.2,2.2,0,0,0-1.39-2.24c-0.53-.26-1.52-0.48-1.3-1,0.37-.88,1,0.23,1.65.15a2.14,2.14,0,0,1,1.21.32,3.59,3.59,0,0,0,.53.22c0.65,0.65,1.3,1.31,1.93,1.93,0.35-.13,1.81-1.39,2.16-1.59a4.08,4.08,0,0,0,1.9-2.28c-2.71-2.77-5.44-5.52-8.14-8.28a9.7,9.7,0,0,0-5.72-1.62,2,2,0,0,1-2.1-1c-0.35-.56-2.33-0.51-3-0.4l-4.83-4.84a1.13,1.13,0,0,1-.86-0.22,2.8,2.8,0,0,0-3.33.19l-0.64.37q11,10.79,22.08,21.68A3.67,3.67,0,0,1,297.6,135.65Z" transform="translate(-2.74 -69.12)" style="fill:#2a6fb8"/><path d="M288,120.33a1.9,1.9,0,0,0-.64-0.39c-0.15-.07-0.33-0.15-0.51-0.22L288.2,121A0.58,0.58,0,0,0,288,120.33Z" transform="translate(-2.74 -69.12)" style="fill:#2a6fb8"/><path d="M233.07,192.1c0,0.95-.38,1.39-1.18,1.13a29.54,29.54,0,0,0-4,.2c3.47,3.42,6.66,6.57,10.06,9.94,0,0.41-.07.82-0.1,1.25h8.51l-13.19-13.29A3.73,3.73,0,0,0,233.07,192.1Z" transform="translate(-2.74 -69.12)" style="fill:#2a6fb8"/><path d="M263.74,178.56a0.89,0.89,0,0,1-1.29-.35c-0.2-.36-0.31-0.77-0.51-1.15a0.66,0.66,0,0,0-.84-0.38,6.25,6.25,0,0,0-1.37.57,3,3,0,0,1-2.44.42l-1.57-1.56c0,0.18-.54,1.69-0.51,1.86a1.07,1.07,0,0,1-1,1.43,5.55,5.55,0,0,0-1.46.23q12.56,12.45,25.15,25h12.63q-13.15-13.17-26.24-26.35C264.08,178.36,263.92,178.47,263.74,178.56Z" transform="translate(-2.74 -69.12)" style="fill:#2a6fb8"/><path d="M271.42,176.15q13.34,13.36,26.79,26.83c0.54-.77,8.47,2,8.95,1.16a11.27,11.27,0,0,1,1.62-.51,2.32,2.32,0,0,1,2.36.44,3.33,3.33,0,0,0,1.38.75l-2.86-2.9c-0.63,0-1.25.07-1.86,0a1,1,0,0,1-1-.7,1,1,0,0,1,.38-1.13,4.46,4.46,0,0,0,.45-0.22l-30.39-30.76c-0.63,1.26-1.34,2.57-.88,4.1a2.06,2.06,0,0,1,.07.33c-0.61-.33-1.13,2.91-1.62,2.49a1.66,1.66,0,0,0-1.59-.5A13.56,13.56,0,0,0,271.42,176.15Z" transform="translate(-2.74 -69.12)" style="fill:#2a6fb8"/><path d="M304.46,143.15c0.54,0.51,1.3.42,1.85,0.84a0.46,0.46,0,0,1-.19.77,2.77,2.77,0,0,1-.8,0c19.93,19.67,39.93,39.69,59.84,59.83h12.1c-23-22.79-45.9-46-68.81-69.23-0.09.09-.18,0.18-0.28,0.27-1.3.74-4.26,4.84-4.41,5.69A1.92,1.92,0,0,0,304.46,143.15Z" transform="translate(-2.74 -69.12)" style="fill:#2a6fb8"/><path d="M244.67,185.76a9,9,0,0,0-1.86,2.77,1.93,1.93,0,0,1-1.33,1.42l-0.07,0q7.34,7.31,14.71,14.62l7.77,0.21c-0.7-.71-1.45-1.45-2.22-2.21a1.14,1.14,0,0,1,.48-0.36,0.91,0.91,0,0,1,.7.06c0.42,1.2,1.55,1.58,2.37,2.31h3.2q-11.4-11.46-22.78-22.95a3.36,3.36,0,0,0-1.08,1.91,4.68,4.68,0,0,1-.64,1.44l8.95,8.89C250,191.06,247.13,188.25,244.67,185.76Z" transform="translate(-2.74 -69.12)" style="fill:#2a6fb8"/><path d="M266.08,125.77a0.26,0.26,0,0,0-.22.1c-0.21.24-.43,0.49-0.66,0.74q6.71,6.6,13.45,13.25a2.59,2.59,0,0,1,1.07-.37,14.12,14.12,0,0,1,1.77,0,1.9,1.9,0,0,1,1.4.57c0.48,0.54-.16.9-0.3,1.35a10.19,10.19,0,0,1-.7,1.65q27.47,27.11,55.1,54.82a12.89,12.89,0,0,1,2.47-1.62c0.11-.07,2.54-1.06,3-1.24l2.56,2.53c-1.62,1.2-3.6,3.24-3.65,4.15a1,1,0,0,1-.21.53l2.39,2.4h13.36c-27.67-27.42-55.51-55.4-82.94-83.38a1.43,1.43,0,0,1-.4.2,4.94,4.94,0,0,1-2.48.5c-1-.06-1.4,1.21-1.68,1.58h0C268.49,124.57,267.19,126.19,266.08,125.77Z" transform="translate(-2.74 -69.12)" style="fill:#2a6fb8"/><path d="M317.86,135c10.3,10.47,20.55,21,30.91,31.32,12.93,12.93,25.47,25.35,38.45,38.27h6.56l0,0,5.38-.18C373.35,179.1,347.6,153,322,126.75c-0.58.59-1.21,1.11-1.81,1.67-0.28.28-3.17-.12-3.43,0.17,1.23,1.21,2.51,2.45,3.74,3.67h0l-3.74-3.69c0,1.61-.11,3.89,1.14,5.21A0.87,0.87,0,0,1,317.86,135Z" transform="translate(-2.74 -69.12)" style="fill:#2a6fb8"/><path d="M241.54,160a0.76,0.76,0,0,0,.17.46,4.12,4.12,0,0,0,5.93,1.17c-2.34-2.34-4.66-4.68-7-7a2,2,0,0,1,.28,1.17C240.61,157.23,241.79,158.49,241.54,160Z" transform="translate(-2.74 -69.12)" style="fill:#2a6fb8"/><path d="M361.74,129.53c0.2-.34.54-0.93,0.57-1a10.09,10.09,0,0,0,.86-4.72q-7.47-7.52-14.89-15.06a3.86,3.86,0,0,1-.67,1.55,2.39,2.39,0,0,0,.26,3.26,9,9,0,0,1-.83,3.14,4.28,4.28,0,0,0-.73,1.4,4.59,4.59,0,0,0-.88,1.77,0.3,0.3,0,0,1-.13.08l1.47,1.45C353.89,128.78,357.83,134.66,361.74,129.53Z" transform="translate(-2.74 -69.12)" style="fill:#2a6fb8"/><path d="M260.25,142a1.07,1.07,0,0,0-.63.64l11.83,11.75a2.79,2.79,0,0,0,0-.66,10.84,10.84,0,0,1,1.32-5.85,8.17,8.17,0,0,0,.9-0.84,5,5,0,0,0,1.22-2q-6.24-6.33-12.44-12.66a9.43,9.43,0,0,1-1.31,2.58c-0.15.23,0,.79-0.13,1l7.54,7.63C266,141,263.36,138.37,261,136a34.2,34.2,0,0,0,.33,4.34A1.31,1.31,0,0,1,260.25,142Z" transform="translate(-2.74 -69.12)" style="fill:#2a6fb8"/><path d="M285.95,158.28a15.17,15.17,0,0,1,1.75-.27c-3.64-3.66-7.22-7.31-10.81-11l-0.46.62a1.08,1.08,0,0,1-.55.48c-1.41-.05-1.32.81-1.21,1.68l8.84,9C284.3,158.56,285.13,158.43,285.95,158.28Z" transform="translate(-2.74 -69.12)" style="fill:#2a6fb8"/><path d="M279.05,158.19c1.49,0.91,2.08,1.55,2.81,1.75-1.32-1.32-2.61-2.64-3.9-3.94,0,0,0,0,0,.06A2,2,0,0,0,279.05,158.19Z" transform="translate(-2.74 -69.12)" style="fill:#2a6fb8"/><path d="M359.82,108.84a3.82,3.82,0,0,1,1.5,3.09,7.41,7.41,0,0,0,.45,2.19c1,1,1.93,1.9,2.9,2.87h0.05a3.7,3.7,0,0,0,.94-0.35c0.35-.2.74-0.75,1.06-0.37,0.51,0.59-.26.79-0.59,1.1s-0.39.32-.57,0.51c16.67,16.46,33.43,33.35,49.87,50.29-1.74-3.86-3.64-7.62-5.66-11.32-4.95-6.41-3.11-4.1-8.91-11.46a173.21,173.21,0,0,0-38.08-40.91,2.75,2.75,0,0,1-.29-0.22,2.5,2.5,0,0,1-.3-0.24h0a1.14,1.14,0,0,0-.46.12,1.5,1.5,0,0,0-1,1.21l-2.52-.07A3.5,3.5,0,0,0,359.82,108.84Z" transform="translate(-2.74 -69.12)" style="fill:#2a6fb8"/><path d="M359.35,110.57a3.93,3.93,0,0,0-.84-1.54,5.5,5.5,0,0,1-1.89-4.75,2.74,2.74,0,0,0-.1-0.59c0.1,0.06.18,0.13,0.28,0.18,0.79,0.36,2.43,0,2.92.52a7.17,7.17,0,0,0-2.38-4c-0.36-.27-0.74-0.51-1.12-0.78a0.58,0.58,0,0,0-.25.11,16,16,0,0,0-2,1.23l-1-1a0.73,0.73,0,0,1-.75-0.76c-0.67-.68-1.32-1.37-2-2.06a4.67,4.67,0,0,0-.4.26,1.36,1.36,0,0,0-.46,1.13c0,1.14-.06,2.27-0.06,3.4q5.29,5.17,10.63,10.42C359.81,111.8,359.59,111.18,359.35,110.57Z" transform="translate(-2.74 -69.12)" style="fill:#2a6fb8"/><path d="M249.79,163.77c-0.87.56-1.66,1.24-2.49,1.88a1.16,1.16,0,0,0-.28.68c0,0.37-.08.73-0.12,1.1,1.4,1.4,2.86,2.83,4.27,4.25,0.47,0.21.92,0.48,1.41,0.68a1.41,1.41,0,0,0,2.13-.71,1.9,1.9,0,0,1,1.46-1.49c-0.72-.71-1.45-1.43-2.15-2.15a3.52,3.52,0,0,0-1.74,1.84,0.89,0.89,0,0,1-.44-0.05,1.17,1.17,0,0,1-.39-0.33c-0.14-.14-0.06-0.26,0-0.44,0.58-.9,1.34-1.81-0.08-2.7a1.29,1.29,0,0,1,0-1C250.86,164.84,250.34,164.3,249.79,163.77Z" transform="translate(-2.74 -69.12)" style="fill:#2a6fb8"/><path d="M203.69,113.22h0v0h0A0.08,0.08,0,0,0,203.69,113.22Z" transform="translate(-2.74 -69.12)" style="fill:#2a6fb8"/><path d="M338.39,122.12a0.82,0.82,0,0,1-.69.44,1.23,1.23,0,0,1-.72-0.15,1.86,1.86,0,0,0-2.34-.08c-0.32.15-.63,1.3-1,1.42l4.22,4.25,0,0-4.2-4.27a2.24,2.24,0,0,1-1.2.52,0.66,0.66,0,0,1-.8-0.45,3.86,3.86,0,0,1-.08-0.5c-0.24-.93-0.45-1.08-1.12-0.77a14.67,14.67,0,0,0-2.34,1.51c26.43,26.22,52.83,53.12,79.17,79.84h6.54l-0.48-.48h0l0.47,0.48,7.5,0.27C394.16,178.07,366.08,150.28,338.39,122.12Z" transform="translate(-2.74 -69.12)" style="fill:#2a6fb8"/><path d="M364.51,125.93a8.47,8.47,0,0,1-1.2,3.52,11.09,11.09,0,0,0-.49,1.52l0.54,0.54h0l-0.53-.54L359,133.49c23.1,22.75,45.71,45.15,68.53,68.79-0.66-2.95-1.41-6.91-2.21-9.79-2.65-2.25-5-11.24-8.24-14.47-17.06-17.05-35-34.38-52.6-52.12v0Z" transform="translate(-2.74 -69.12)" style="fill:#2a6fb8"/><path d="M322.61,369.9c2.35,2.38,4.94,4.21,7.82,1.69a4.91,4.91,0,0,0,1.54-1.25c0.18-.33.36-0.65,0.52-1-2.58-2.57-3-3-5.6-5.6" transform="translate(-2.74 -69.12)" style="fill:#2a6fb8"/><path d="M330.91,350.1a5.17,5.17,0,0,0-1,3.67c-0.23.35,0.15,3.86-.08,4.21a4.06,4.06,0,0,0-.73,1.76l7.09,7.15a2.37,2.37,0,0,0,1.55-1.26c0.18-.32.69-2.72,0.86-3.06-1.19-1.2-2.6-2.64-4-4.09l4,4.09,1.35-3.49Z" transform="translate(-2.74 -69.12)" style="fill:#2a6fb8"/><path d="M344.38,343.18a7.4,7.4,0,0,0-.87-2.49c-0.35-.36-0.73-0.72-1.06-1.08a0.53,0.53,0,0,0-.5.23c-0.36.54-3.34,4.3-3.79,4.78h0a8.05,8.05,0,0,1-2.24,1.36l6.7,6.76c0.41-1.16.82-2.33,1.16-3.53l0.17-.65C343.9,347.78,344.48,343.85,344.38,343.18Z" transform="translate(-2.74 -69.12)" style="fill:#2a6fb8"/><path d="M460.31,277H460a6.89,6.89,0,0,0-13.76.45c0,0.11,0,.2,0,0.31-16.7,88.82-94.67,156-188.33,156-93.9,0-172-67.54-188.46-156.7h0c0-.06,0-0.11,0-0.17a6.92,6.92,0,0,0-13.83,0s0,0,0,.07H55.59c0,0.21.08,0.4,0.11,0.61A7.52,7.52,0,0,0,56,279c0,0.23.1,0.46,0.14,0.69q1.87,9.89,4.67,19.43c0.09,0.31.17,0.62,0.27,0.93a204.33,204.33,0,0,0,26.37,55.86c0.13,0.2.26,0.4,0.4,0.6,1.33,2,2.7,3.9,4.09,5.81l0.62,0.85q2.07,2.79,4.22,5.53c0.23,0.29.46,0.57,0.68,0.86,1.46,1.82,2.94,3.63,4.46,5.4l0.5,0.58a206.43,206.43,0,0,0,26.91,26l1.36,1.11c1.5,1.19,3,2.34,4.57,3.48,0.7,0.53,1.4,1.06,2.11,1.57,1.44,1,2.9,2.06,4.37,3.07l2.54,1.72q2.11,1.41,4.27,2.77,1.41,0.89,2.84,1.76c1.4,0.85,2.8,1.69,4.22,2.51,1,0.59,2.06,1.16,3.1,1.73,1.38,0.76,2.77,1.53,4.17,2.27,1.12,0.58,2.25,1.15,3.39,1.71,1.36,0.68,2.72,1.37,4.09,2s2.61,1.18,3.91,1.77,2.48,1.13,3.75,1.67q3.76,1.59,7.6,3c1.07,0.4,2.16.76,3.25,1.14,1.6,0.58,3.21,1.16,4.84,1.69,1.17,0.38,2.35.73,3.52,1.1,1.58,0.49,3.16,1,4.74,1.42,1.19,0.34,2.4.65,3.6,1,1.6,0.42,3.2.83,4.82,1.22,1.21,0.28,2.43.56,3.65,0.82,1.64,0.36,3.28.69,4.92,1,1.21,0.23,2.43.46,3.66,0.66,1.69,0.3,3.39.56,5.1,0.81,1.2,0.18,2.39.36,3.58,0.51,1.79,0.23,3.6.43,5.4,0.62,1.13,0.12,2.25.24,3.39,0.34,2,0.18,4,.3,6.06.41,0.95,0.06,1.89.13,2.83,0.17q4.48,0.2,9,.2h0a204.87,204.87,0,0,0,80-16.17l0.27-.11,0.29-.13A205.82,205.82,0,0,0,460.32,277h0Z" transform="translate(-2.74 -69.12)" style="fill:#39b54a"/><path d="M198.59,138.61c-0.11,1.12,1.25.85,1.85,1.37a1,1,0,0,1,.47.84,1.38,1.38,0,0,1-.46.52c-0.71.82-.51,1.71,0.46,1.87,0.5,0.08,1,0,1.51.09a1.85,1.85,0,0,1,1.17.35,1.6,1.6,0,0,0,1.63.75c-2.08-2.11-4.15-4.21-6.24-6.31a0.58,0.58,0,0,0-.39.5" transform="translate(-2.74 -69.12)" style="fill:#2a6fb8"/><path d="M226.95,131.32a0.48,0.48,0,0,0-.21-0.43c-1-.47-0.93-1.53-1.26-2.36-0.12-.31-0.16-0.77-0.55-0.75-1,.08-2.05-0.89-3.11.11a1.57,1.57,0,0,1-.7.36c1.78,1.76,3.58,3.51,5.36,5.27a21.29,21.29,0,0,0,.47-2.19" transform="translate(-2.74 -69.12)" style="fill:#2a6fb8"/><path d="M219.84,139.1c-2.5-2.54-6.79-6.79-9.29-9.34-0.78.16-2.25,4.31-3.25,4.45a5,5,0,0,0-1.61-2.41,1.56,1.56,0,0,0-2.09,0,12.72,12.72,0,0,0-.93.95l9.64,9.64c1.27-.67,2.54-1.31,3.8-2" transform="translate(-2.74 -69.12)" style="fill:#2a6fb8"/></svg>